<svg width="12" height="13" viewBox="0 0 12 13" fill="none" xmlns="http://www.w3.org/2000/svg">
<path fill-rule="evenodd" clip-rule="evenodd" d="M5.99997 1.41898C6.16242 1.41898 6.30639 1.52357 6.3566 1.67807L7.49115 5.16898H11.25C11.4143 5.16898 11.5595 5.27599 11.6082 5.43296C11.6568 5.58994 11.5976 5.76031 11.462 5.85325L8.41474 7.94283L9.58965 11.4241C9.64183 11.5786 9.58806 11.7492 9.45667 11.846C9.32527 11.9427 9.14642 11.9434 9.0143 11.8476L5.99997 9.66333L2.98563 11.8476C2.85352 11.9434 2.67466 11.9427 2.54327 11.846C2.41188 11.7492 2.35811 11.5786 2.41028 11.4241L3.5852 7.94283L0.537894 5.85325C0.402354 5.76031 0.343124 5.58994 0.391775 5.43296C0.440427 5.27599 0.585622 5.16898 0.749967 5.16898H4.50878L5.64333 1.67807C5.69354 1.52357 5.83752 1.41898 5.99997 1.41898ZM5.99997 3.00723L5.13785 5.65988C5.08764 5.81438 4.94367 5.91898 4.78122 5.91898H1.95994L4.24329 7.4847C4.38169 7.5796 4.44019 7.7549 4.38653 7.91389L3.4964 10.5513L5.77993 8.89657C5.9112 8.80144 6.08873 8.80144 6.22001 8.89657L8.50353 10.5513L7.61341 7.91389C7.55975 7.7549 7.61825 7.5796 7.75664 7.4847L10.04 5.91898H7.21872C7.05627 5.91898 6.91229 5.81438 6.86208 5.65988L5.99997 3.00723Z" fill="#2EAAB1"/>
</svg>
